<svg width="649" height="162" viewBox="0 0 649 162" fill="none" xmlns="http://www.w3.org/2000/svg">
<path d="M305.787 59.6553C310.633 56.4551 319.581 51.1752 327.527 49.896C339.123 48.0322 350.691 49.9422 349.062 57.2421C347.533 64.2307 315.182 67.8764 303.632 62.8831C300.46 67.8427 297.783 73.1027 295.639 78.5868C299.958 76.4123 311.772 71.0965 322.142 72.5012C334.253 74.1459 336.888 76.9243 332.68 81.3924C328.636 85.688 304.988 85.4787 295.074 80.1416C294.846 80.7882 294.628 81.4325 294.426 82.0809C294.1 83.1242 291.083 82.897 291.478 81.6187C292.08 79.7515 292.76 77.8896 293.518 76.0539C296.424 69.6127 298.176 66.0514 302.234 60.0811C304.733 56.3728 307.554 52.8917 310.662 49.6781C310.978 44.724 312.219 30.1844 317.106 24.1081C323.045 16.7467 328.956 21.3085 327.041 28.3563C325.809 32.7641 323.943 36.9693 321.501 40.8395C324.089 39.2113 326.822 37.8292 329.667 36.7113C334.434 31.951 349.82 17.5729 355.975 24.5807C362.937 32.5008 342.27 41.2664 330.106 38.6711C320.144 42.9777 312.001 50.6975 305.787 59.6553Z" fill="#BBBEA0"/>
<path d="M292.894 56.1532C290.333 50.9414 285.286 41.8598 279.079 36.7363C270.02 29.2622 259.075 25.057 256.787 32.1779C254.57 38.9795 280.631 58.4916 293.12 60.0275C293.347 65.9106 292.995 71.8024 292.07 77.6174C289.445 73.5568 281.943 62.994 272.288 58.9594C261.009 54.2512 257.33 55.3144 258.699 61.2973C260.015 67.0489 280.519 78.8322 291.77 79.2442C291.64 79.9176 291.502 80.5833 291.348 81.245C291.102 82.3097 293.819 83.64 294.125 82.3376C294.55 80.4224 294.906 78.4723 295.181 76.5057C295.933 69.4795 296.224 65.5212 295.744 58.3181C295.464 53.8549 294.792 49.4254 293.737 45.0807C295.97 40.6475 302.256 27.4785 301.115 19.7645C299.716 10.4101 292.31 11.3546 290.396 18.4024C289.228 22.8278 288.71 27.3992 288.859 31.973C287.451 29.2595 285.792 26.6842 283.904 24.2809C282.2 17.7628 276.203 -2.4234 267.349 0.507631C257.335 3.81669 270.728 21.8338 282.533 25.7491C288.947 34.5038 292.066 45.2826 292.894 56.1532Z" fill="#BBBEA0"/>
<path d="M16.875 161C11.9583 161 8.04167 159.25 5.125 155.75C2.29167 152.167 0.875 148.084 0.875 143.5C0.875 138.917 2.41667 134.834 5.5 131.25C8.66667 127.584 12.4167 125.75 16.75 125.75C18.5833 125.75 20.0833 126.209 21.25 127.125C22.5 127.959 23.125 129.209 23.125 130.875C23.125 133.959 21.125 135.5 17.125 135.5C15.2917 135.5 13.7083 136.292 12.375 137.875C11.0417 139.375 10.375 141.292 10.375 143.625C10.375 145.875 11 147.75 12.25 149.25C13.5 150.667 15.25 151.375 17.5 151.375C25.25 151.375 29.125 139.375 29.125 115.375C29.125 108.792 28.4583 100.167 27.125 89.5002C25.7917 78.8336 25.125 72.6252 25.125 70.8752C25.125 69.0419 25.7083 67.5836 26.875 66.5002C28.0417 65.4169 29.4167 64.8752 31 64.8752C33.3333 64.8752 35.2083 66.3335 36.625 69.2502C41.125 78.0002 47.5417 89.7085 55.875 104.375C64.2083 119.042 71.4167 131.209 77.5 140.875C77.1667 140.875 76.75 135.084 76.25 123.5C75.8333 111.834 75.625 104.167 75.625 100.5C75.625 91.2502 76.5417 83.3752 78.375 76.8752C79.4583 73.1252 81.2083 70.2085 83.625 68.1252C86.125 65.9585 88.9583 64.8752 92.125 64.8752C95.375 64.8752 98.125 65.7502 100.375 67.5002C102.625 69.1669 103.75 71.1252 103.75 73.3752C103.75 75.6252 102.792 76.7502 100.875 76.7502C100.292 76.7502 99.0833 76.3752 97.25 75.6252C95.4167 74.8752 93.7917 74.5002 92.375 74.5002C87.125 74.5002 84.5 86.5419 84.5 110.625C84.5 116.292 84.9583 124.959 85.875 136.625C86.7917 148.292 87.25 154.792 87.25 156.125C87.25 157.459 86.6667 158.667 85.5 159.75C84.4167 160.834 83.125 161.375 81.625 161.375C79.375 161.375 77.4167 159.917 75.75 157C71.5833 149.584 66.8333 141.292 61.5 132.125L45.625 103.75C41.0417 95.2502 37.875 89.6669 36.125 87.0002C37.2917 98.0002 37.875 108.459 37.875 118.375C37.875 146.792 30.875 161 16.875 161Z" fill="white" fill-opacity="0.9"/>
<path d="M126.012 106.5L125.012 134C125.012 139.75 126.22 144.375 128.637 147.875C131.137 151.375 134.512 153.125 138.762 153.125C143.012 153.125 147.137 150.75 151.137 146C155.053 141.167 157.845 135.75 159.512 129.75L159.137 102.625C159.137 98.3752 160.72 96.2502 163.887 96.2502C167.72 96.2502 169.637 99.1252 169.637 104.875C169.637 110.542 168.803 118.834 167.137 129.75C167.137 135.834 167.553 140.917 168.387 145C169.303 149 170.428 151.25 171.762 151.75C172.262 152 172.845 152.167 173.512 152.25C174.262 152.334 174.762 152.459 175.012 152.625C175.345 152.792 175.512 153.125 175.512 153.625C175.512 155.875 174.803 157.709 173.387 159.125C172.053 160.542 170.345 161.25 168.262 161.25C163.012 161.25 160.387 155.917 160.387 145.25C154.22 155.917 146.47 161.25 137.137 161.25C130.47 161.25 125.303 158.792 121.637 153.875C117.97 148.792 116.137 142.709 116.137 135.625L116.887 116.75C116.887 114.167 116.553 111.084 115.887 107.5C115.22 103.834 114.887 101.542 114.887 100.625C114.887 99.7086 115.387 98.7502 116.387 97.7502C117.47 96.7502 118.762 96.2502 120.262 96.2502C124.095 96.2502 126.012 99.6669 126.012 106.5Z" fill="white" fill-opacity="0.9"/>
<path d="M214.635 105.375L204.26 105.125L204.01 134.75C204.01 142.417 204.301 147.417 204.885 149.75C205.468 152 207.135 153.125 209.885 153.125C211.218 153.125 212.801 152.709 214.635 151.875C216.468 150.959 217.593 150.5 218.01 150.5C219.76 150.5 220.635 151.375 220.635 153.125C220.635 154.875 219.093 156.667 216.01 158.5C212.926 160.334 209.885 161.25 206.885 161.25C199.635 161.25 196.01 155.917 196.01 145.25L195.885 105.125C193.135 105.375 191.218 105.5 190.135 105.5C185.968 105.5 183.885 104.125 183.885 101.375C183.885 98.6252 185.968 97.2502 190.135 97.2502L195.635 97.5002L195.385 83.5002C195.385 79.3335 196.968 77.2502 200.135 77.2502C203.301 77.2502 204.885 79.3335 204.885 83.5002L204.51 97.6252L214.635 97.1252C218.801 97.1252 220.885 98.5419 220.885 101.375C220.885 104.042 218.801 105.375 214.635 105.375Z" fill="white" fill-opacity="0.9"/>
<path d="M243.374 131.375L243.749 154.875C243.749 159.125 242.166 161.25 238.999 161.25C235.166 161.25 233.249 158.417 233.249 152.75C233.249 147 234.082 138.667 235.749 127.75C235.749 124.25 235.374 119.375 234.624 113.125C233.957 106.792 233.624 102.959 233.624 101.625C233.624 100.292 234.082 99.0836 234.999 98.0002C235.916 96.8335 237.082 96.2502 238.499 96.2502C239.916 96.2502 241.082 96.8335 241.999 98.0002C242.916 99.0836 243.374 100.209 243.374 101.375C243.374 102.542 243.332 104.417 243.249 107C243.249 109.584 243.249 111.375 243.249 112.375C244.832 108.209 247.416 104.459 250.999 101.125C254.666 97.8752 258.291 96.2502 261.874 96.2502C265.541 96.2502 268.416 97.0002 270.499 98.5002C272.666 99.9169 273.749 101.542 273.749 103.375C273.749 105.209 273.291 106.625 272.374 107.625C271.457 108.625 270.249 109.125 268.749 109.125C267.332 109.125 265.749 108.375 263.999 106.875C262.416 105.292 261.082 104.5 259.999 104.5C257.249 104.5 254.041 107.5 250.374 113.5C246.707 119.417 244.374 125.375 243.374 131.375Z" fill="white" fill-opacity="0.9"/>
<path d="M295.774 102.5L295.149 128.75L295.774 155C295.774 159.167 294.191 161.25 291.024 161.25C287.858 161.25 286.274 159.167 286.274 155L286.899 128.75L286.274 102.5C286.274 98.3335 287.858 96.2502 291.024 96.2502C294.191 96.2502 295.774 98.3335 295.774 102.5Z" fill="white" fill-opacity="0.9"/>
<path d="M329.604 139.375L330.229 123.125C324.729 122.875 320.437 121.584 317.354 119.25C314.354 116.834 312.854 114.042 312.854 110.875C312.854 107.709 314.354 104.959 317.354 102.625C320.437 100.292 324.729 98.7086 330.229 97.8752C329.479 85.1252 329.104 77.8752 329.104 76.1252C329.104 68.2919 336.687 64.3752 351.854 64.3752C362.52 64.3752 370.77 66.5835 376.604 71.0002C382.52 75.3336 385.479 80.7502 385.479 87.2502C385.479 93.7502 382.229 99.7919 375.729 105.375C386.812 111.459 392.354 119.542 392.354 129.625C392.354 136.209 390.312 142.042 386.229 147.125C382.145 152.125 376.854 155.834 370.354 158.25C363.854 160.667 357.312 161.875 350.729 161.875C343.395 161.875 336.687 161 330.604 159.25C324.52 157.417 319.854 155.292 316.604 152.875C313.354 150.459 311.729 148.459 311.729 146.875C311.729 145.209 312.145 143.959 312.979 143.125C313.812 142.209 314.812 141.75 315.979 141.75C315.979 141.75 316.145 141.75 316.479 141.75C316.895 141.75 318.02 142.334 319.854 143.5C321.77 144.584 323.895 145.875 326.229 147.375C328.645 148.875 331.77 150.209 335.604 151.375C339.52 152.542 343.395 153.125 347.229 153.125C347.479 153.125 347.729 153.125 347.979 153.125C357.895 153.125 366.104 150.959 372.604 146.625C379.104 142.292 382.354 136.709 382.354 129.875C382.354 125.959 381.187 122.334 378.854 119C376.52 115.667 373.354 113 369.354 111C360.77 117.334 350.729 121.25 339.229 122.75L339.729 138.75C339.729 139.084 339.729 139.375 339.729 139.625C339.729 141.792 338.979 143.334 337.479 144.25C336.562 144.834 335.645 145.125 334.729 145.125L331.979 144.25C330.395 143.25 329.604 141.625 329.604 139.375ZM338.979 76.0002C338.979 78.9169 339.062 85.9586 339.229 97.1252C349.312 97.1252 358.854 98.7085 367.854 101.875C373.437 97.6252 376.229 92.9586 376.229 87.8752C376.229 82.7919 374.145 79.0836 369.979 76.7502C365.812 74.3335 360.604 73.1252 354.354 73.1252C348.187 73.1252 343.062 74.0835 338.979 76.0002ZM338.979 105.625V114.25C342.645 114.084 346.687 113.375 351.104 112.125C355.604 110.792 359.104 109.292 361.604 107.625C357.02 106.125 350.645 105.375 342.479 105.375C340.979 105.375 339.812 105.459 338.979 105.625ZM330.354 114.75V106.25C324.437 106.917 321.479 108.292 321.479 110.375C321.479 113.125 324.437 114.584 330.354 114.75Z" fill="white" fill-opacity="0.9"/>
<path d="M414.877 128.875C414.877 135.792 416.794 141.667 420.627 146.5C424.46 151.334 429.252 153.75 435.002 153.75C440.835 153.75 445.752 151.334 449.752 146.5C453.835 141.584 455.877 135.667 455.877 128.75C455.877 121.834 453.919 115.959 450.002 111.125C446.169 106.209 441.377 103.75 435.627 103.75C429.96 103.75 425.044 106.209 420.877 111.125C416.877 116.042 414.877 121.959 414.877 128.875ZM414.252 152.375C408.752 145.959 406.002 138.125 406.002 128.875C406.002 119.625 408.794 111.792 414.377 105.375C419.96 98.8752 427.002 95.6252 435.502 95.6252C444.002 95.6252 451.002 98.8335 456.502 105.25C462.002 111.584 464.752 119.417 464.752 128.75C464.752 138 461.919 145.834 456.252 152.25C450.669 158.667 443.627 161.875 435.127 161.875C426.71 161.875 419.752 158.709 414.252 152.375Z" fill="white" fill-opacity="0.9"/>
<path d="M486.317 128.875C486.317 135.792 488.234 141.667 492.067 146.5C495.901 151.334 500.692 153.75 506.442 153.75C512.276 153.75 517.192 151.334 521.192 146.5C525.276 141.584 527.317 135.667 527.317 128.75C527.317 121.834 525.359 115.959 521.442 111.125C517.609 106.209 512.817 103.75 507.067 103.75C501.401 103.75 496.484 106.209 492.317 111.125C488.317 116.042 486.317 121.959 486.317 128.875ZM485.692 152.375C480.192 145.959 477.442 138.125 477.442 128.875C477.442 119.625 480.234 111.792 485.817 105.375C491.401 98.8752 498.442 95.6252 506.942 95.6252C515.442 95.6252 522.442 98.8335 527.942 105.25C533.442 111.584 536.192 119.417 536.192 128.75C536.192 138 533.359 145.834 527.692 152.25C522.109 158.667 515.067 161.875 506.567 161.875C498.151 161.875 491.192 158.709 485.692 152.375Z" fill="white" fill-opacity="0.9"/>
<path d="M642.383 120.625L641.758 140.25V145.625C641.924 149.042 642.758 151.084 644.258 151.75C644.841 151.917 645.508 152.084 646.258 152.25C647.008 152.334 647.508 152.459 647.758 152.625C648.091 152.792 648.258 153.125 648.258 153.625C648.258 155.792 647.549 157.625 646.133 159.125C644.799 160.542 643.216 161.25 641.383 161.25C638.299 161.25 636.133 160.042 634.883 157.625C633.633 155.209 633.008 151.5 633.008 146.5L633.508 123.5C633.508 117.75 632.383 113.167 630.133 109.75C627.883 106.25 624.799 104.5 620.883 104.5C616.966 104.5 613.133 106.875 609.383 111.625C605.633 116.375 603.008 121.75 601.508 127.75L601.883 154.875C601.883 159.125 600.299 161.25 597.133 161.25C593.299 161.25 591.383 158.417 591.383 152.75C591.383 147 592.216 138.667 593.883 127.75C593.883 112.25 589.633 104.5 581.133 104.5C577.216 104.5 573.383 106.875 569.633 111.625C565.883 116.375 563.258 121.75 561.758 127.75L562.133 154.875C562.133 159.125 560.549 161.25 557.383 161.25C553.549 161.25 551.633 158.417 551.633 152.75C551.633 147 552.466 138.667 554.133 127.75C554.133 124.25 553.758 119.334 553.008 113C552.341 106.667 552.008 102.834 552.008 101.5C552.008 100.167 552.466 98.9585 553.383 97.8752C554.299 96.7919 555.466 96.2502 556.883 96.2502C558.299 96.2502 559.466 96.7919 560.383 97.8752C561.299 98.9585 561.758 100.125 561.758 101.375C561.758 102.625 561.716 104.5 561.633 107C561.633 109.5 561.633 111.209 561.633 112.125C567.216 101.542 574.299 96.2502 582.883 96.2502C587.716 96.2502 591.674 97.6669 594.758 100.5C597.924 103.334 600.133 107.209 601.383 112.125C606.966 101.542 614.049 96.2502 622.633 96.2502C628.966 96.2502 633.799 98.6252 637.133 103.375C640.633 108.125 642.383 113.875 642.383 120.625Z" fill="white" fill-opacity="0.9"/>
</svg>
